<svg 
          width="35" 
          height="35" fill="none" 
          xmlns="http://www.w3.org/2000/svg">
          <path d="M 22.03250026702881 10.5 L 17.5 15.032500267028809 L 12.967499732971191 10.5 L 10.5 12.967499732971191 L 15.032500267028809 17.5 L 10.5 22.03250026702881 L 12.967499732971191 24.5 L 17.5 19.96749973297119 L 22.03250026702881 24.5 L 24.5 22.03250026702881 L 19.96749973297119 17.5 L 24.5 12.967499732971191 L 22.03250026702881 10.5 Z M 17.5 0 C 7.822499632835388 0 0 7.822499632835388 0 17.5 C 0 27.177500367164612 7.822499632835388 35 17.5 35 C 27.177500367164612 35 35 27.177500367164612 35 17.5 C 35 7.822499632835388 27.177500367164612 0 17.5 0 Z M 17.5 31.5 C 9.782500267028809 31.5 3.5 25.21749973297119 3.5 17.5 C 3.5 9.782500267028809 9.782500267028809 3.5 17.5 3.5 C 25.21749973297119 3.5 31.5 9.782500267028809 31.5 17.5 C 31.5 25.21749973297119 25.21749973297119 31.5 17.5 31.5 Z" fill="rgb(255,255,255)"/>
        </svg>