<svg 
          width="60" 
          height="60" fill="none" 
          xmlns="http://www.w3.org/2000/svg">
          <path d="M 30 0 C 13.440000057220459 0 0 13.440000057220459 0 30 C 0 46.55999994277954 13.440000057220459 60 30 60 L 45 60 L 45 54 L 30 54 C 16.979999542236328 54 6 43.02000045776367 6 30 C 6 16.979999542236328 16.979999542236328 6 30 6 C 43.02000045776367 6 54 16.979999542236328 54 30 L 54 34.290000915527344 C 54 36.66000097990036 51.870000064373016 39 49.5 39 C 47.129999935626984 39 45 36.66000097990036 45 34.290000915527344 L 45 30 C 45 21.72000002861023 38.27999997138977 15 30 15 C 21.72000002861023 15 15 21.72000002861023 15 30 C 15 38.27999997138977 21.72000002861023 45 30 45 C 34.139999985694885 45 37.919999957084656 43.319999277591705 40.61999988555908 40.589999198913574 C 42.56999981403351 43.25999915599823 45.92999982833862 45 49.5 45 C 55.41000008583069 45 60 40.20000100135803 60 34.290000915527344 L 60 30 C 60 13.440000057220459 46.55999994277954 0 30 0 Z M 30 39 C 25.020000100135803 39 21 34.9799998998642 21 30 C 21 25.020000100135803 25.020000100135803 21 30 21 C 34.9799998998642 21 39 25.020000100135803 39 30 C 39 34.9799998998642 34.9799998998642 39 30 39 Z" fill="rgb(154.00000602006912,154.00000602006912,184.00000423192978)"/>
        </svg>