<svg 
          width="60" 
          height="60" fill="none" 
          xmlns="http://www.w3.org/2000/svg">
          <path d="M 54 0 L 18 0 C 14.699999928474426 0 12 2.6999999284744263 12 6 L 12 42 C 12 45.300000071525574 14.699999928474426 48 18 48 L 54 48 C 57.300000071525574 48 60 45.300000071525574 60 42 L 60 6 C 60 2.6999999284744263 57.300000071525574 0 54 0 Z M 28.5 22.5 C 28.5 24.9899999499321 26.4899999499321 27 24 27 L 21 27 L 21 33 L 16.5 33 L 16.5 15 L 24 15 C 26.4899999499321 15 28.5 17.0100000500679 28.5 19.5 L 28.5 22.5 Z M 43.5 28.5 C 43.5 30.9899999499321 41.4899999499321 33 39 33 L 31.5 33 L 31.5 15 L 39 15 C 41.4899999499321 15 43.5 17.0100000500679 43.5 19.5 L 43.5 28.5 Z M 55.5 19.5 L 51 19.5 L 51 22.5 L 55.5 22.5 L 55.5 27 L 51 27 L 51 33 L 46.5 33 L 46.5 15 L 55.5 15 L 55.5 19.5 Z M 21 22.5 L 24 22.5 L 24 19.5 L 21 19.5 L 21 22.5 Z M 6 12 L 0 12 L 0 54 C 0 57.300000071525574 2.6999999284744263 60 6 60 L 48 60 L 48 54 L 6 54 L 6 12 Z M 36 28.5 L 39 28.5 L 39 19.5 L 36 19.5 L 36 28.5 Z" fill="rgb(154.2493486404419,154.2493486404419,183.81250709295273)"/>
        </svg>